<?xml version="1.0" encoding="UTF-8"?>
<svg width="943px" height="947px" viewBox="0 0 943 947" version="1.1" xmlns="http://www.w3.org/2000/svg" xmlns:xlink="http://www.w3.org/1999/xlink">
    <title>Path 4</title>
    <g id="Page-1" stroke="none" stroke-width="1" fill="none" fill-rule="evenodd">
        <g id="artboard" transform="translate(0.000000, -77.000000)" stroke="#979797">
            <path d="M115.5,1099.76874 C-17.0680375,935.031375 -35.9013708,815.462325 59,741.061595 C201.352056,629.460499 273.809548,986.814922 393.418153,1009.8723 C513.026757,1032.92969 578.142543,974.731437 560.839725,890.081483 C543.536906,805.431529 352.310872,890.306087 309.893245,781.101472 C267.475618,671.896857 24.5030846,688.097934 30.654005,603.843318 C37.8123313,505.789368 132.127706,494.434041 258.657676,519.133732 C406.348715,547.964238 339.636545,711.338622 426.302757,781.271345 C512.968968,851.204068 801.429073,1007.6853 884.757804,927.82925 C968.086534,847.973196 816.553625,735.397742 738.848626,654.377418 C661.143626,573.357093 399.9435,527.291766 305.268632,449.806443 C210.593764,372.32112 119.015014,160.550383 193.394967,122.229469 C267.77492,83.9085547 410.378141,100.393149 448.620096,207.481189 C486.862051,314.569229 515.296521,421.674646 585.415026,462.54863 C655.533531,503.422614 791.656437,538.827904 851.375994,503.422614 C911.095551,468.017324 887.876615,345.899522 863.712248,271.659166 C839.547881,197.41881 867.143898,137.997363 942.646176,78.3112553" id="Path-4"></path>
        </g>
    </g>
</svg>